<svg xmlns="http://www.w3.org/2000/svg" xmlns:xlink="http://www.w3.org/1999/xlink" width="224.88" viewBox="0 0 224.88 225" height="225" version="1.0"><defs><g id="c"><path d="M 5.078125 1.28125 L 3.890625 1.28125 C 3.253906 1.28125 2.71875 1.179688 2.28125 0.984375 C 1.84375 0.785156 1.484375 0.488281 1.203125 0.09375 C 0.929688 -0.289062 0.734375 -0.78125 0.609375 -1.375 C 0.492188 -1.976562 0.4375 -2.675781 0.4375 -3.46875 C 0.4375 -4.332031 0.5 -5.054688 0.625 -5.640625 C 0.757812 -6.234375 0.953125 -6.710938 1.203125 -7.078125 C 1.460938 -7.441406 1.78125 -7.703125 2.15625 -7.859375 C 2.53125 -8.015625 2.953125 -8.09375 3.421875 -8.09375 C 3.921875 -8.09375 4.347656 -8.019531 4.703125 -7.875 C 5.066406 -7.726562 5.363281 -7.523438 5.59375 -7.265625 C 5.832031 -7.015625 6.007812 -6.71875 6.125 -6.375 C 6.238281 -6.03125 6.296875 -5.664062 6.296875 -5.28125 L 6.296875 -1.03125 L 5.078125 -1.03125 L 5.078125 -1.734375 L 5 -1.734375 C 4.914062 -1.453125 4.78125 -1.242188 4.59375 -1.109375 C 4.414062 -0.972656 4.195312 -0.90625 3.9375 -0.90625 C 3.476562 -0.90625 3.125 -1.097656 2.875 -1.484375 C 2.632812 -1.878906 2.515625 -2.5 2.515625 -3.34375 C 2.515625 -4.195312 2.632812 -4.816406 2.875 -5.203125 C 3.125 -5.597656 3.476562 -5.796875 3.9375 -5.796875 C 4.195312 -5.796875 4.414062 -5.726562 4.59375 -5.59375 C 4.78125 -5.457031 4.914062 -5.25 5 -4.96875 L 5.078125 -4.96875 L 5.078125 -5.28125 C 5.078125 -5.59375 5.039062 -5.859375 4.96875 -6.078125 C 4.894531 -6.296875 4.785156 -6.472656 4.640625 -6.609375 C 4.503906 -6.753906 4.335938 -6.851562 4.140625 -6.90625 C 3.941406 -6.96875 3.726562 -7 3.5 -7 C 3.21875 -7 2.96875 -6.953125 2.75 -6.859375 C 2.53125 -6.773438 2.34375 -6.625 2.1875 -6.40625 C 2.03125 -6.1875 1.910156 -5.882812 1.828125 -5.5 C 1.742188 -5.125 1.703125 -4.648438 1.703125 -4.078125 L 1.703125 -2.609375 C 1.703125 -2.171875 1.742188 -1.773438 1.828125 -1.421875 C 1.910156 -1.078125 2.035156 -0.785156 2.203125 -0.546875 C 2.378906 -0.304688 2.601562 -0.125 2.875 0 C 3.15625 0.125 3.492188 0.1875 3.890625 0.1875 L 5.078125 0.1875 Z M 4.4375 -1.875 C 4.644531 -1.875 4.800781 -1.9375 4.90625 -2.0625 C 5.019531 -2.1875 5.078125 -2.347656 5.078125 -2.546875 L 5.078125 -4.140625 C 5.078125 -4.347656 5.019531 -4.507812 4.90625 -4.625 C 4.800781 -4.75 4.644531 -4.8125 4.4375 -4.8125 C 4.226562 -4.8125 4.066406 -4.734375 3.953125 -4.578125 C 3.847656 -4.429688 3.796875 -4.144531 3.796875 -3.71875 L 3.796875 -2.96875 C 3.796875 -2.539062 3.847656 -2.25 3.953125 -2.09375 C 4.066406 -1.945312 4.226562 -1.875 4.4375 -1.875 Z M 4.4375 -1.875"/></g><g id="d"><path d="M 3.875 0 C 3.269531 0 2.816406 -0.15625 2.515625 -0.46875 C 2.222656 -0.789062 2.078125 -1.203125 2.078125 -1.703125 L 2.078125 -4.5625 L 0.484375 -4.5625 L 0.484375 -5.875 L 1.515625 -5.875 C 1.765625 -5.875 1.941406 -5.921875 2.046875 -6.015625 C 2.148438 -6.117188 2.203125 -6.304688 2.203125 -6.578125 L 2.203125 -7.953125 L 3.765625 -7.953125 L 3.765625 -5.875 L 6.046875 -5.875 L 6.046875 -4.5625 L 3.765625 -4.5625 L 3.765625 -1.3125 L 6.046875 -1.3125 L 6.046875 0 Z M 3.875 0"/></g><g id="e"><path d="M 3.578125 0.140625 C 2.585938 0.140625 1.835938 -0.128906 1.328125 -0.671875 C 0.816406 -1.222656 0.5625 -1.972656 0.5625 -2.921875 C 0.5625 -3.398438 0.628906 -3.828125 0.765625 -4.203125 C 0.898438 -4.585938 1.085938 -4.914062 1.328125 -5.1875 C 1.578125 -5.457031 1.878906 -5.660156 2.234375 -5.796875 C 2.585938 -5.941406 2.984375 -6.015625 3.421875 -6.015625 C 3.867188 -6.015625 4.265625 -5.941406 4.609375 -5.796875 C 4.960938 -5.660156 5.257812 -5.460938 5.5 -5.203125 C 5.738281 -4.941406 5.925781 -4.628906 6.0625 -4.265625 C 6.195312 -3.898438 6.265625 -3.488281 6.265625 -3.03125 L 6.265625 -2.53125 L 2.25 -2.53125 L 2.25 -2.421875 C 2.25 -2.046875 2.363281 -1.738281 2.59375 -1.5 C 2.832031 -1.269531 3.179688 -1.15625 3.640625 -1.15625 C 3.984375 -1.15625 4.28125 -1.222656 4.53125 -1.359375 C 4.78125 -1.492188 5 -1.671875 5.1875 -1.890625 L 6.09375 -0.90625 C 5.863281 -0.625 5.539062 -0.378906 5.125 -0.171875 C 4.71875 0.0351562 4.203125 0.140625 3.578125 0.140625 Z M 3.4375 -4.8125 C 3.070312 -4.8125 2.78125 -4.695312 2.5625 -4.46875 C 2.351562 -4.25 2.25 -3.945312 2.25 -3.5625 L 2.25 -3.46875 L 4.609375 -3.46875 L 4.609375 -3.5625 C 4.609375 -3.945312 4.503906 -4.25 4.296875 -4.46875 C 4.085938 -4.695312 3.800781 -4.8125 3.4375 -4.8125 Z M 3.4375 -4.8125"/></g><g id="f"><path d="M 0.84375 -1.3125 L 2.203125 -1.3125 L 2.203125 -4.5625 L 0.84375 -4.5625 L 0.84375 -5.875 L 3.890625 -5.875 L 3.890625 -4.21875 L 3.96875 -4.21875 C 4.019531 -4.425781 4.09375 -4.628906 4.1875 -4.828125 C 4.28125 -5.035156 4.398438 -5.21875 4.546875 -5.375 C 4.691406 -5.53125 4.867188 -5.648438 5.078125 -5.734375 C 5.296875 -5.828125 5.550781 -5.875 5.84375 -5.875 L 6.40625 -5.875 L 6.40625 -4.328125 L 5.15625 -4.328125 C 4.726562 -4.328125 4.410156 -4.203125 4.203125 -3.953125 C 3.992188 -3.710938 3.890625 -3.410156 3.890625 -3.046875 L 3.890625 -1.3125 L 5.828125 -1.3125 L 5.828125 0 L 0.84375 0 Z M 0.84375 -1.3125"/></g><g id="g"><path d="M 3.78125 -6.625 C 3.40625 -6.625 3.140625 -6.703125 2.984375 -6.859375 C 2.835938 -7.015625 2.765625 -7.203125 2.765625 -7.421875 L 2.765625 -7.75 C 2.765625 -7.976562 2.835938 -8.164062 2.984375 -8.3125 C 3.140625 -8.46875 3.40625 -8.546875 3.78125 -8.546875 C 4.15625 -8.546875 4.414062 -8.46875 4.5625 -8.3125 C 4.71875 -8.164062 4.796875 -7.976562 4.796875 -7.75 L 4.796875 -7.421875 C 4.796875 -7.203125 4.71875 -7.015625 4.5625 -6.859375 C 4.414062 -6.703125 4.15625 -6.625 3.78125 -6.625 Z M 1.078125 -1.3125 L 2.9375 -1.3125 L 2.9375 -4.5625 L 1.078125 -4.5625 L 1.078125 -5.875 L 4.625 -5.875 L 4.625 -1.3125 L 6.359375 -1.3125 L 6.359375 0 L 1.078125 0 Z M 1.078125 -1.3125"/></g><g id="h"><path d="M 0.734375 0 L 0.734375 -5.875 L 2.421875 -5.875 L 2.421875 -4.8125 L 2.5 -4.8125 C 2.5625 -4.976562 2.640625 -5.128906 2.734375 -5.265625 C 2.835938 -5.410156 2.957031 -5.539062 3.09375 -5.65625 C 3.238281 -5.769531 3.40625 -5.859375 3.59375 -5.921875 C 3.78125 -5.984375 3.988281 -6.015625 4.21875 -6.015625 C 4.5 -6.015625 4.757812 -5.96875 5 -5.875 C 5.238281 -5.78125 5.441406 -5.632812 5.609375 -5.4375 C 5.773438 -5.25 5.90625 -5.019531 6 -4.75 C 6.09375 -4.476562 6.140625 -4.160156 6.140625 -3.796875 L 6.140625 0 L 4.453125 0 L 4.453125 -3.578125 C 4.453125 -4.335938 4.125 -4.71875 3.46875 -4.71875 C 3.332031 -4.71875 3.203125 -4.695312 3.078125 -4.65625 C 2.953125 -4.625 2.835938 -4.570312 2.734375 -4.5 C 2.640625 -4.425781 2.5625 -4.335938 2.5 -4.234375 C 2.445312 -4.128906 2.421875 -4.003906 2.421875 -3.859375 L 2.421875 0 Z M 0.734375 0"/></g><g id="i"><path d="M 3.65625 0.140625 C 3.195312 0.140625 2.78125 0.0703125 2.40625 -0.0625 C 2.039062 -0.207031 1.726562 -0.410156 1.46875 -0.671875 C 1.21875 -0.941406 1.023438 -1.265625 0.890625 -1.640625 C 0.753906 -2.023438 0.6875 -2.457031 0.6875 -2.9375 C 0.6875 -3.414062 0.753906 -3.84375 0.890625 -4.21875 C 1.023438 -4.601562 1.21875 -4.925781 1.46875 -5.1875 C 1.726562 -5.457031 2.039062 -5.660156 2.40625 -5.796875 C 2.78125 -5.941406 3.191406 -6.015625 3.640625 -6.015625 C 4.285156 -6.015625 4.800781 -5.882812 5.1875 -5.625 C 5.582031 -5.363281 5.882812 -5.015625 6.09375 -4.578125 L 4.796875 -3.875 C 4.691406 -4.101562 4.550781 -4.289062 4.375 -4.4375 C 4.207031 -4.59375 3.960938 -4.671875 3.640625 -4.671875 C 3.253906 -4.671875 2.957031 -4.554688 2.75 -4.328125 C 2.539062 -4.109375 2.4375 -3.804688 2.4375 -3.421875 L 2.4375 -2.453125 C 2.4375 -2.066406 2.539062 -1.757812 2.75 -1.53125 C 2.957031 -1.3125 3.265625 -1.203125 3.671875 -1.203125 C 3.992188 -1.203125 4.25 -1.273438 4.4375 -1.421875 C 4.625 -1.578125 4.78125 -1.78125 4.90625 -2.03125 L 6.1875 -1.296875 C 5.96875 -0.867188 5.65625 -0.519531 5.25 -0.25 C 4.84375 0.0078125 4.3125 0.140625 3.65625 0.140625 Z M 3.65625 0.140625"/></g><g id="j"><path d="M 3.421875 0.140625 C 2.960938 0.140625 2.550781 0.0703125 2.1875 -0.0625 C 1.820312 -0.207031 1.507812 -0.410156 1.25 -0.671875 C 1 -0.941406 0.804688 -1.265625 0.671875 -1.640625 C 0.535156 -2.023438 0.46875 -2.457031 0.46875 -2.9375 C 0.46875 -3.414062 0.535156 -3.84375 0.671875 -4.21875 C 0.804688 -4.601562 1 -4.925781 1.25 -5.1875 C 1.507812 -5.457031 1.820312 -5.660156 2.1875 -5.796875 C 2.550781 -5.941406 2.960938 -6.015625 3.421875 -6.015625 C 3.867188 -6.015625 4.273438 -5.941406 4.640625 -5.796875 C 5.003906 -5.660156 5.3125 -5.457031 5.5625 -5.1875 C 5.820312 -4.925781 6.019531 -4.601562 6.15625 -4.21875 C 6.300781 -3.84375 6.375 -3.414062 6.375 -2.9375 C 6.375 -2.457031 6.300781 -2.023438 6.15625 -1.640625 C 6.019531 -1.265625 5.820312 -0.941406 5.5625 -0.671875 C 5.3125 -0.410156 5.003906 -0.207031 4.640625 -0.0625 C 4.273438 0.0703125 3.867188 0.140625 3.421875 0.140625 Z M 3.421875 -1.109375 C 3.796875 -1.109375 4.085938 -1.226562 4.296875 -1.46875 C 4.515625 -1.707031 4.625 -2.039062 4.625 -2.46875 L 4.625 -3.40625 C 4.625 -3.84375 4.515625 -4.175781 4.296875 -4.40625 C 4.085938 -4.644531 3.796875 -4.765625 3.421875 -4.765625 C 3.035156 -4.765625 2.734375 -4.644531 2.515625 -4.40625 C 2.304688 -4.175781 2.203125 -3.84375 2.203125 -3.40625 L 2.203125 -2.46875 C 2.203125 -2.039062 2.304688 -1.707031 2.515625 -1.46875 C 2.734375 -1.226562 3.035156 -1.109375 3.421875 -1.109375 Z M 3.421875 -1.109375"/></g><clipPath id="a"><path d="M 0 0.0585938 L 224.761719 0.0585938 L 224.761719 224.9375 L 0 224.9375 Z M 0 0.0585938"/></clipPath><clipPath id="b"><path d="M 22.488281 31 L 202.390625 31 L 202.390625 189.828125 L 22.488281 189.828125 Z M 22.488281 31"/></clipPath></defs><g clip-path="url(#a)"><path fill="#FFF" d="M 0 0.0585938 L 224.878906 0.0585938 L 224.878906 232.4375 L 0 232.4375 Z M 0 0.0585938"/><path fill="#FFF" d="M 0 0.0585938 L 224.878906 0.0585938 L 224.878906 224.941406 L 0 224.941406 Z M 0 0.0585938"/><path fill="#171738" d="M 0 0.0585938 L 224.878906 0.0585938 L 224.878906 224.941406 L 0 224.941406 Z M 0 0.0585938"/></g><path fill="#6B48AD" d="M 162.355469 186.214844 L 162.355469 99.488281 L 112.484375 99.488281 L 112.484375 186.214844 L 25.910156 186.214844 L 25.910156 105.488281 L 198.96875 36.15625 L 198.96875 186.214844 Z M 162.355469 186.214844"/><g clip-path="url(#b)"><path fill="#8EF9F3" d="M 193.066406 34.871094 L 26.765625 101.460938 L 22.488281 103.171875 L 22.488281 189.640625 L 115.90625 189.640625 L 158.933594 165.390625 L 158.933594 189.640625 L 202.476562 189.640625 L 202.476562 31.101562 Z M 195.546875 182.785156 L 165.691406 182.785156 L 165.691406 96.058594 L 108.976562 96.058594 L 108.976562 182.785156 L 29.332031 182.785156 L 29.332031 107.886719 L 195.546875 41.300781 Z M 195.546875 182.785156"/></g><path fill="#6B48AD" d="M 115.820312 102.917969 L 115.90625 181.757812 L 146.871094 164.363281 L 146.871094 120.398438 Z M 115.820312 102.917969"/><g fill="#8EF9F3"><use x="33.597" y="143.886" xmlns:xlink="http://www.w3.org/1999/xlink" xlink:href="#c" xlink:type="simple" xlink:actuate="onLoad" xlink:show="embed"/></g><g fill="#8EF9F3"><use x="40.422" y="143.886" xmlns:xlink="http://www.w3.org/1999/xlink" xlink:href="#d" xlink:type="simple" xlink:actuate="onLoad" xlink:show="embed"/></g><g fill="#8EF9F3"><use x="47.247" y="143.886" xmlns:xlink="http://www.w3.org/1999/xlink" xlink:href="#e" xlink:type="simple" xlink:actuate="onLoad" xlink:show="embed"/></g><g fill="#8EF9F3"><use x="54.072" y="143.886" xmlns:xlink="http://www.w3.org/1999/xlink" xlink:href="#f" xlink:type="simple" xlink:actuate="onLoad" xlink:show="embed"/></g><g fill="#8EF9F3"><use x="60.897" y="143.886" xmlns:xlink="http://www.w3.org/1999/xlink" xlink:href="#f" xlink:type="simple" xlink:actuate="onLoad" xlink:show="embed"/></g><g fill="#8EF9F3"><use x="67.722" y="143.886" xmlns:xlink="http://www.w3.org/1999/xlink" xlink:href="#g" xlink:type="simple" xlink:actuate="onLoad" xlink:show="embed"/></g><g fill="#8EF9F3"><use x="74.548" y="143.886" xmlns:xlink="http://www.w3.org/1999/xlink" xlink:href="#e" xlink:type="simple" xlink:actuate="onLoad" xlink:show="embed"/></g><g fill="#8EF9F3"><use x="81.373" y="143.886" xmlns:xlink="http://www.w3.org/1999/xlink" xlink:href="#h" xlink:type="simple" xlink:actuate="onLoad" xlink:show="embed"/></g><g fill="#8EF9F3"><use x="88.198" y="143.886" xmlns:xlink="http://www.w3.org/1999/xlink" xlink:href="#i" xlink:type="simple" xlink:actuate="onLoad" xlink:show="embed"/></g><g fill="#8EF9F3"><use x="95.023" y="143.886" xmlns:xlink="http://www.w3.org/1999/xlink" xlink:href="#j" xlink:type="simple" xlink:actuate="onLoad" xlink:show="embed"/></g></svg>