<svg xmlns="http://www.w3.org/2000/svg" xmlns:xlink="http://www.w3.org/1999/xlink" width="810" viewBox="0 0 810 810" height="810" version="1.0"><defs><g id="b"><path d="M 18.28125 4.640625 L 13.984375 4.640625 C 11.710938 4.640625 9.785156 4.28125 8.203125 3.5625 C 6.617188 2.851562 5.332031 1.785156 4.34375 0.359375 C 3.363281 -1.054688 2.65625 -2.835938 2.21875 -4.984375 C 1.78125 -7.128906 1.5625 -9.632812 1.5625 -12.5 C 1.5625 -15.613281 1.800781 -18.226562 2.28125 -20.34375 C 2.757812 -22.46875 3.453125 -24.175781 4.359375 -25.46875 C 5.273438 -26.769531 6.40625 -27.703125 7.75 -28.265625 C 9.09375 -28.828125 10.625 -29.109375 12.34375 -29.109375 C 14.113281 -29.109375 15.648438 -28.847656 16.953125 -28.328125 C 18.253906 -27.804688 19.328125 -27.085938 20.171875 -26.171875 C 21.015625 -25.265625 21.640625 -24.191406 22.046875 -22.953125 C 22.460938 -21.722656 22.671875 -20.398438 22.671875 -18.984375 L 22.671875 -3.734375 L 18.28125 -3.734375 L 18.28125 -6.234375 L 18 -6.234375 C 17.695312 -5.222656 17.21875 -4.46875 16.5625 -3.96875 C 15.90625 -3.476562 15.097656 -3.234375 14.140625 -3.234375 C 12.523438 -3.234375 11.273438 -3.9375 10.390625 -5.34375 C 9.503906 -6.757812 9.0625 -8.992188 9.0625 -12.046875 C 9.0625 -15.109375 9.503906 -17.34375 10.390625 -18.75 C 11.273438 -20.164062 12.523438 -20.875 14.140625 -20.875 C 15.097656 -20.875 15.90625 -20.625 16.5625 -20.125 C 17.21875 -19.632812 17.695312 -18.882812 18 -17.875 L 18.28125 -17.875 L 18.28125 -18.984375 C 18.28125 -20.128906 18.144531 -21.097656 17.875 -21.890625 C 17.601562 -22.679688 17.210938 -23.320312 16.703125 -23.8125 C 16.203125 -24.3125 15.601562 -24.671875 14.90625 -24.890625 C 14.207031 -25.109375 13.4375 -25.21875 12.59375 -25.21875 C 11.570312 -25.21875 10.664062 -25.050781 9.875 -24.71875 C 9.082031 -24.394531 8.40625 -23.835938 7.84375 -23.046875 C 7.289062 -22.253906 6.867188 -21.171875 6.578125 -19.796875 C 6.296875 -18.429688 6.15625 -16.722656 6.15625 -14.671875 L 6.15625 -9.390625 C 6.15625 -7.804688 6.296875 -6.382812 6.578125 -5.125 C 6.867188 -3.863281 7.328125 -2.800781 7.953125 -1.9375 C 8.578125 -1.082031 9.378906 -0.429688 10.359375 0.015625 C 11.347656 0.472656 12.554688 0.703125 13.984375 0.703125 L 18.28125 0.703125 Z M 15.953125 -6.765625 C 16.710938 -6.765625 17.289062 -6.984375 17.6875 -7.421875 C 18.082031 -7.859375 18.28125 -8.445312 18.28125 -9.1875 L 18.28125 -14.921875 C 18.28125 -15.660156 18.082031 -16.25 17.6875 -16.6875 C 17.289062 -17.125 16.710938 -17.34375 15.953125 -17.34375 C 15.210938 -17.34375 14.644531 -17.066406 14.25 -16.515625 C 13.851562 -15.972656 13.65625 -14.9375 13.65625 -13.40625 L 13.65625 -10.703125 C 13.65625 -9.171875 13.851562 -8.128906 14.25 -7.578125 C 14.644531 -7.035156 15.210938 -6.765625 15.953125 -6.765625 Z M 15.953125 -6.765625"/></g><g id="c"><path d="M 13.9375 0 C 11.75 0 10.125 -0.570312 9.0625 -1.71875 C 8 -2.863281 7.46875 -4.328125 7.46875 -6.109375 L 7.46875 -16.4375 L 1.71875 -16.4375 L 1.71875 -21.15625 L 5.453125 -21.15625 C 6.359375 -21.15625 7 -21.332031 7.375 -21.6875 C 7.757812 -22.039062 7.953125 -22.695312 7.953125 -23.65625 L 7.953125 -28.625 L 13.53125 -28.625 L 13.53125 -21.15625 L 21.765625 -21.15625 L 21.765625 -16.4375 L 13.53125 -16.4375 L 13.53125 -4.71875 L 21.765625 -4.71875 L 21.765625 0 Z M 13.9375 0"/></g><g id="d"><path d="M 12.875 0.484375 C 9.320312 0.484375 6.628906 -0.492188 4.796875 -2.453125 C 2.960938 -4.421875 2.046875 -7.101562 2.046875 -10.5 C 2.046875 -12.21875 2.285156 -13.765625 2.765625 -15.140625 C 3.242188 -16.523438 3.925781 -17.703125 4.8125 -18.671875 C 5.707031 -19.640625 6.789062 -20.375 8.0625 -20.875 C 9.332031 -21.382812 10.757812 -21.640625 12.34375 -21.640625 C 13.925781 -21.640625 15.34375 -21.382812 16.59375 -20.875 C 17.851562 -20.375 18.921875 -19.660156 19.796875 -18.734375 C 20.671875 -17.804688 21.347656 -16.675781 21.828125 -15.34375 C 22.304688 -14.019531 22.546875 -12.539062 22.546875 -10.90625 L 22.546875 -9.109375 L 8.078125 -9.109375 L 8.078125 -8.734375 C 8.078125 -7.367188 8.5 -6.269531 9.34375 -5.4375 C 10.195312 -4.601562 11.441406 -4.1875 13.078125 -4.1875 C 14.335938 -4.1875 15.414062 -4.421875 16.3125 -4.890625 C 17.21875 -5.367188 18 -6.007812 18.65625 -6.8125 L 21.9375 -3.234375 C 21.113281 -2.222656 19.960938 -1.347656 18.484375 -0.609375 C 17.015625 0.117188 15.144531 0.484375 12.875 0.484375 Z M 12.375 -17.296875 C 11.0625 -17.296875 10.015625 -16.894531 9.234375 -16.09375 C 8.460938 -15.289062 8.078125 -14.203125 8.078125 -12.828125 L 8.078125 -12.5 L 16.609375 -12.5 L 16.609375 -12.828125 C 16.609375 -14.222656 16.226562 -15.316406 15.46875 -16.109375 C 14.71875 -16.898438 13.6875 -17.296875 12.375 -17.296875 Z M 12.375 -17.296875"/></g><g id="e"><path d="M 3.03125 -4.71875 L 7.90625 -4.71875 L 7.90625 -16.4375 L 3.03125 -16.4375 L 3.03125 -21.15625 L 13.984375 -21.15625 L 13.984375 -15.171875 L 14.265625 -15.171875 C 14.460938 -15.929688 14.726562 -16.671875 15.0625 -17.390625 C 15.40625 -18.117188 15.84375 -18.765625 16.375 -19.328125 C 16.90625 -19.890625 17.550781 -20.332031 18.3125 -20.65625 C 19.082031 -20.988281 19.988281 -21.15625 21.03125 -21.15625 L 23.046875 -21.15625 L 23.046875 -15.578125 L 18.53125 -15.578125 C 17.03125 -15.578125 15.894531 -15.132812 15.125 -14.25 C 14.363281 -13.363281 13.984375 -12.273438 13.984375 -10.984375 L 13.984375 -4.71875 L 20.953125 -4.71875 L 20.953125 0 L 3.03125 0 Z M 3.03125 -4.71875"/></g><g id="f"><path d="M 13.609375 -23.859375 C 12.242188 -23.859375 11.296875 -24.140625 10.765625 -24.703125 C 10.234375 -25.265625 9.96875 -25.941406 9.96875 -26.734375 L 9.96875 -27.921875 C 9.96875 -28.742188 10.234375 -29.425781 10.765625 -29.96875 C 11.296875 -30.519531 12.242188 -30.796875 13.609375 -30.796875 C 14.972656 -30.796875 15.921875 -30.519531 16.453125 -29.96875 C 16.992188 -29.425781 17.265625 -28.742188 17.265625 -27.921875 L 17.265625 -26.734375 C 17.265625 -25.941406 16.992188 -25.265625 16.453125 -24.703125 C 15.921875 -24.140625 14.972656 -23.859375 13.609375 -23.859375 Z M 3.859375 -4.71875 L 10.578125 -4.71875 L 10.578125 -16.4375 L 3.859375 -16.4375 L 3.859375 -21.15625 L 16.640625 -21.15625 L 16.640625 -4.71875 L 22.875 -4.71875 L 22.875 0 L 3.859375 0 Z M 3.859375 -4.71875"/></g><g id="g"><path d="M 2.671875 0 L 2.671875 -21.15625 L 8.734375 -21.15625 L 8.734375 -17.296875 L 8.984375 -17.296875 C 9.222656 -17.898438 9.519531 -18.460938 9.875 -18.984375 C 10.226562 -19.503906 10.660156 -19.960938 11.171875 -20.359375 C 11.679688 -20.753906 12.269531 -21.066406 12.9375 -21.296875 C 13.601562 -21.523438 14.363281 -21.640625 15.21875 -21.640625 C 16.226562 -21.640625 17.15625 -21.46875 18 -21.125 C 18.84375 -20.789062 19.566406 -20.28125 20.171875 -19.59375 C 20.773438 -18.914062 21.242188 -18.082031 21.578125 -17.09375 C 21.921875 -16.113281 22.09375 -14.976562 22.09375 -13.6875 L 22.09375 0 L 16.03125 0 L 16.03125 -12.875 C 16.03125 -15.601562 14.84375 -16.96875 12.46875 -16.96875 C 12 -16.96875 11.535156 -16.90625 11.078125 -16.78125 C 10.628906 -16.664062 10.226562 -16.476562 9.875 -16.21875 C 9.519531 -15.957031 9.238281 -15.632812 9.03125 -15.25 C 8.832031 -14.863281 8.734375 -14.414062 8.734375 -13.90625 L 8.734375 0 Z M 2.671875 0"/></g><g id="h"><path d="M 13.15625 0.484375 C 11.488281 0.484375 9.992188 0.234375 8.671875 -0.265625 C 7.347656 -0.773438 6.226562 -1.503906 5.3125 -2.453125 C 4.394531 -3.410156 3.6875 -4.570312 3.1875 -5.9375 C 2.695312 -7.3125 2.453125 -8.859375 2.453125 -10.578125 C 2.453125 -12.296875 2.695312 -13.835938 3.1875 -15.203125 C 3.6875 -16.578125 4.394531 -17.738281 5.3125 -18.6875 C 6.226562 -19.644531 7.347656 -20.375 8.671875 -20.875 C 9.992188 -21.382812 11.476562 -21.640625 13.125 -21.640625 C 15.445312 -21.640625 17.3125 -21.164062 18.71875 -20.21875 C 20.125 -19.28125 21.195312 -18.035156 21.9375 -16.484375 L 17.265625 -13.9375 C 16.878906 -14.757812 16.378906 -15.441406 15.765625 -15.984375 C 15.148438 -16.535156 14.269531 -16.8125 13.125 -16.8125 C 11.726562 -16.8125 10.65625 -16.40625 9.90625 -15.59375 C 9.15625 -14.789062 8.78125 -13.691406 8.78125 -12.296875 L 8.78125 -8.859375 C 8.78125 -7.460938 9.15625 -6.359375 9.90625 -5.546875 C 10.65625 -4.742188 11.753906 -4.34375 13.203125 -4.34375 C 14.378906 -4.34375 15.300781 -4.613281 15.96875 -5.15625 C 16.632812 -5.707031 17.203125 -6.421875 17.671875 -7.296875 L 22.265625 -4.671875 C 21.492188 -3.117188 20.378906 -1.867188 18.921875 -0.921875 C 17.460938 0.015625 15.539062 0.484375 13.15625 0.484375 Z M 13.15625 0.484375"/></g><g id="i"><path d="M 12.296875 0.484375 C 10.660156 0.484375 9.1875 0.234375 7.875 -0.265625 C 6.5625 -0.773438 5.445312 -1.503906 4.53125 -2.453125 C 3.613281 -3.410156 2.910156 -4.570312 2.421875 -5.9375 C 1.929688 -7.3125 1.6875 -8.859375 1.6875 -10.578125 C 1.6875 -12.296875 1.929688 -13.835938 2.421875 -15.203125 C 2.910156 -16.578125 3.613281 -17.738281 4.53125 -18.6875 C 5.445312 -19.644531 6.5625 -20.375 7.875 -20.875 C 9.1875 -21.382812 10.660156 -21.640625 12.296875 -21.640625 C 13.941406 -21.640625 15.421875 -21.382812 16.734375 -20.875 C 18.046875 -20.375 19.15625 -19.644531 20.0625 -18.6875 C 20.976562 -17.738281 21.679688 -16.578125 22.171875 -15.203125 C 22.671875 -13.835938 22.921875 -12.296875 22.921875 -10.578125 C 22.921875 -8.859375 22.671875 -7.3125 22.171875 -5.9375 C 21.679688 -4.570312 20.976562 -3.410156 20.0625 -2.453125 C 19.15625 -1.503906 18.046875 -0.773438 16.734375 -0.265625 C 15.421875 0.234375 13.941406 0.484375 12.296875 0.484375 Z M 12.296875 -4.015625 C 13.660156 -4.015625 14.722656 -4.4375 15.484375 -5.28125 C 16.253906 -6.132812 16.640625 -7.335938 16.640625 -8.890625 L 16.640625 -12.265625 C 16.640625 -13.816406 16.253906 -15.015625 15.484375 -15.859375 C 14.722656 -16.710938 13.660156 -17.140625 12.296875 -17.140625 C 10.929688 -17.140625 9.863281 -16.710938 9.09375 -15.859375 C 8.332031 -15.015625 7.953125 -13.816406 7.953125 -12.265625 L 7.953125 -8.890625 C 7.953125 -7.335938 8.332031 -6.132812 9.09375 -5.28125 C 9.863281 -4.4375 10.929688 -4.015625 12.296875 -4.015625 Z M 12.296875 -4.015625"/></g><clipPath id="a"><path d="M 81 111.132812 L 729 111.132812 L 729 682 L 81 682 Z M 81 111.132812"/></clipPath></defs><path fill="#FFF" d="M-81 -81H891V891H-81z"/><path fill="#FFF" d="M-81 -81H891V891H-81z"/><path fill="#171738" d="M-81 -81H891V891H-81z"/><path fill="#6B48AD" d="M 584.792969 669.621094 L 584.792969 357.746094 L 405.152344 357.746094 L 405.152344 669.621094 L 93.324219 669.621094 L 93.324219 379.316406 L 716.675781 130.003906 L 716.675781 669.621094 Z M 584.792969 669.621094"/><g clip-path="url(#a)"><path fill="#8EF9F3" d="M 695.414062 125.382812 L 96.40625 364.832031 L 81 370.996094 L 81 681.945312 L 417.480469 681.945312 L 572.46875 594.734375 L 572.46875 681.945312 L 729.308594 681.945312 L 729.308594 111.820312 Z M 704.347656 657.292969 L 596.8125 657.292969 L 596.8125 345.417969 L 392.519531 345.417969 L 392.519531 657.292969 L 105.652344 657.292969 L 105.652344 387.945312 L 704.347656 148.496094 Z M 704.347656 657.292969"/></g><path fill="#6B48AD" d="M 417.171875 370.074219 L 417.480469 653.59375 L 529.023438 591.035156 L 529.023438 432.941406 Z M 417.171875 370.074219"/><g fill="#8EF9F3"><use x="121.015" y="518.051" xmlns:xlink="http://www.w3.org/1999/xlink" xlink:href="#b" xlink:type="simple" xlink:actuate="onLoad" xlink:show="embed"/></g><g fill="#8EF9F3"><use x="145.598" y="518.051" xmlns:xlink="http://www.w3.org/1999/xlink" xlink:href="#c" xlink:type="simple" xlink:actuate="onLoad" xlink:show="embed"/></g><g fill="#8EF9F3"><use x="170.181" y="518.051" xmlns:xlink="http://www.w3.org/1999/xlink" xlink:href="#d" xlink:type="simple" xlink:actuate="onLoad" xlink:show="embed"/></g><g fill="#8EF9F3"><use x="194.764" y="518.051" xmlns:xlink="http://www.w3.org/1999/xlink" xlink:href="#e" xlink:type="simple" xlink:actuate="onLoad" xlink:show="embed"/></g><g fill="#8EF9F3"><use x="219.348" y="518.051" xmlns:xlink="http://www.w3.org/1999/xlink" xlink:href="#e" xlink:type="simple" xlink:actuate="onLoad" xlink:show="embed"/></g><g fill="#8EF9F3"><use x="243.931" y="518.051" xmlns:xlink="http://www.w3.org/1999/xlink" xlink:href="#f" xlink:type="simple" xlink:actuate="onLoad" xlink:show="embed"/></g><g fill="#8EF9F3"><use x="268.514" y="518.051" xmlns:xlink="http://www.w3.org/1999/xlink" xlink:href="#d" xlink:type="simple" xlink:actuate="onLoad" xlink:show="embed"/></g><g fill="#8EF9F3"><use x="293.098" y="518.051" xmlns:xlink="http://www.w3.org/1999/xlink" xlink:href="#g" xlink:type="simple" xlink:actuate="onLoad" xlink:show="embed"/></g><g fill="#8EF9F3"><use x="317.681" y="518.051" xmlns:xlink="http://www.w3.org/1999/xlink" xlink:href="#h" xlink:type="simple" xlink:actuate="onLoad" xlink:show="embed"/></g><g fill="#8EF9F3"><use x="342.264" y="518.051" xmlns:xlink="http://www.w3.org/1999/xlink" xlink:href="#i" xlink:type="simple" xlink:actuate="onLoad" xlink:show="embed"/></g></svg>