<svg xmlns="http://www.w3.org/2000/svg" width="112.5" viewBox="0 0 112.5 112.5" height="112.5" version="1.0"><defs><clipPath id="a"><path d="M 11.25 15.433594 L 101.25 15.433594 L 101.25 94.933594 L 11.25 94.933594 Z M 11.25 15.433594"/></clipPath></defs><path fill="#12122B" d="M 81.222656 93.125 L 81.222656 49.742188 L 56.269531 49.742188 L 56.269531 93.125 L 12.960938 93.125 L 12.960938 52.742188 L 99.539062 18.058594 L 99.539062 93.125 Z M 81.222656 93.125"/><g clip-path="url(#a)"><path fill="#D81E5B" d="M 96.585938 17.414062 L 13.390625 50.726562 L 11.25 51.585938 L 11.25 94.839844 L 57.984375 94.839844 L 79.507812 82.710938 L 79.507812 94.839844 L 101.292969 94.839844 L 101.292969 15.527344 Z M 97.828125 91.410156 L 82.890625 91.410156 L 82.890625 48.027344 L 54.515625 48.027344 L 54.515625 91.410156 L 14.671875 91.410156 L 14.671875 53.941406 L 97.828125 20.628906 Z M 97.828125 91.410156"/></g><path fill="#12122B" d="M 57.941406 51.457031 L 57.984375 90.898438 L 73.476562 82.195312 L 73.476562 60.203125 Z M 57.941406 51.457031"/><g fill="#F1F1F9"><g><g><path d="M 2.53125 0.640625 L 1.9375 0.640625 C 1.625 0.640625 1.359375 0.585938 1.140625 0.484375 C 0.921875 0.390625 0.738281 0.242188 0.59375 0.046875 C 0.457031 -0.148438 0.359375 -0.394531 0.296875 -0.6875 C 0.242188 -0.988281 0.21875 -1.335938 0.21875 -1.734375 C 0.21875 -2.171875 0.25 -2.535156 0.3125 -2.828125 C 0.382812 -3.117188 0.484375 -3.351562 0.609375 -3.53125 C 0.734375 -3.71875 0.890625 -3.847656 1.078125 -3.921875 C 1.265625 -3.992188 1.476562 -4.03125 1.71875 -4.03125 C 1.957031 -4.03125 2.164062 -3.992188 2.34375 -3.921875 C 2.53125 -3.859375 2.679688 -3.757812 2.796875 -3.625 C 2.910156 -3.5 2.992188 -3.347656 3.046875 -3.171875 C 3.109375 -3.003906 3.140625 -2.828125 3.140625 -2.640625 L 3.140625 -0.515625 L 2.53125 -0.515625 L 2.53125 -0.859375 L 2.5 -0.859375 C 2.457031 -0.722656 2.390625 -0.617188 2.296875 -0.546875 C 2.203125 -0.484375 2.09375 -0.453125 1.96875 -0.453125 C 1.738281 -0.453125 1.5625 -0.546875 1.4375 -0.734375 C 1.3125 -0.929688 1.25 -1.242188 1.25 -1.671875 C 1.25 -2.097656 1.3125 -2.40625 1.4375 -2.59375 C 1.5625 -2.789062 1.738281 -2.890625 1.96875 -2.890625 C 2.09375 -2.890625 2.203125 -2.851562 2.296875 -2.78125 C 2.390625 -2.71875 2.457031 -2.617188 2.5 -2.484375 L 2.53125 -2.484375 L 2.53125 -2.640625 C 2.53125 -2.796875 2.507812 -2.925781 2.46875 -3.03125 C 2.4375 -3.144531 2.382812 -3.234375 2.3125 -3.296875 C 2.25 -3.367188 2.164062 -3.421875 2.0625 -3.453125 C 1.96875 -3.484375 1.863281 -3.5 1.75 -3.5 C 1.601562 -3.5 1.472656 -3.472656 1.359375 -3.421875 C 1.253906 -3.378906 1.160156 -3.300781 1.078125 -3.1875 C 1.003906 -3.082031 0.945312 -2.9375 0.90625 -2.75 C 0.875 -2.5625 0.859375 -2.320312 0.859375 -2.03125 L 0.859375 -1.296875 C 0.859375 -1.078125 0.875 -0.878906 0.90625 -0.703125 C 0.945312 -0.535156 1.007812 -0.390625 1.09375 -0.265625 C 1.1875 -0.148438 1.300781 -0.0625 1.4375 0 C 1.570312 0.0625 1.738281 0.09375 1.9375 0.09375 L 2.53125 0.09375 Z M 2.21875 -0.9375 C 2.320312 -0.9375 2.398438 -0.96875 2.453125 -1.03125 C 2.503906 -1.09375 2.53125 -1.175781 2.53125 -1.28125 L 2.53125 -2.0625 C 2.53125 -2.164062 2.503906 -2.25 2.453125 -2.3125 C 2.398438 -2.375 2.320312 -2.40625 2.21875 -2.40625 C 2.113281 -2.40625 2.03125 -2.363281 1.96875 -2.28125 C 1.914062 -2.207031 1.890625 -2.066406 1.890625 -1.859375 L 1.890625 -1.484375 C 1.890625 -1.273438 1.914062 -1.128906 1.96875 -1.046875 C 2.03125 -0.972656 2.113281 -0.9375 2.21875 -0.9375 Z M 2.21875 -0.9375" transform="translate(16.808 72.039)"/></g></g></g><g fill="#F1F1F9"><g><g><path d="M 1.9375 0 C 1.632812 0 1.40625 -0.078125 1.25 -0.234375 C 1.101562 -0.398438 1.03125 -0.601562 1.03125 -0.84375 L 1.03125 -2.28125 L 0.234375 -2.28125 L 0.234375 -2.9375 L 0.75 -2.9375 C 0.875 -2.9375 0.960938 -2.957031 1.015625 -3 C 1.078125 -3.050781 1.109375 -3.144531 1.109375 -3.28125 L 1.109375 -3.96875 L 1.875 -3.96875 L 1.875 -2.9375 L 3.015625 -2.9375 L 3.015625 -2.28125 L 1.875 -2.28125 L 1.875 -0.65625 L 3.015625 -0.65625 L 3.015625 0 Z M 1.9375 0" transform="translate(20.221 72.039)"/></g></g></g><g fill="#F1F1F9"><g><g><path d="M 1.78125 0.0625 C 1.289062 0.0625 0.914062 -0.0703125 0.65625 -0.34375 C 0.40625 -0.613281 0.28125 -0.984375 0.28125 -1.453125 C 0.28125 -1.691406 0.3125 -1.90625 0.375 -2.09375 C 0.445312 -2.289062 0.546875 -2.457031 0.671875 -2.59375 C 0.796875 -2.726562 0.941406 -2.828125 1.109375 -2.890625 C 1.285156 -2.960938 1.488281 -3 1.71875 -3 C 1.9375 -3 2.128906 -2.960938 2.296875 -2.890625 C 2.472656 -2.828125 2.617188 -2.726562 2.734375 -2.59375 C 2.859375 -2.46875 2.953125 -2.3125 3.015625 -2.125 C 3.085938 -1.945312 3.125 -1.742188 3.125 -1.515625 L 3.125 -1.265625 L 1.125 -1.265625 L 1.125 -1.21875 C 1.125 -1.019531 1.179688 -0.863281 1.296875 -0.75 C 1.410156 -0.632812 1.582031 -0.578125 1.8125 -0.578125 C 1.988281 -0.578125 2.140625 -0.609375 2.265625 -0.671875 C 2.390625 -0.742188 2.5 -0.832031 2.59375 -0.9375 L 3.046875 -0.453125 C 2.929688 -0.304688 2.769531 -0.179688 2.5625 -0.078125 C 2.363281 0.015625 2.101562 0.0625 1.78125 0.0625 Z M 1.71875 -2.40625 C 1.53125 -2.40625 1.382812 -2.347656 1.28125 -2.234375 C 1.175781 -2.117188 1.125 -1.96875 1.125 -1.78125 L 1.125 -1.734375 L 2.296875 -1.734375 L 2.296875 -1.78125 C 2.296875 -1.96875 2.242188 -2.117188 2.140625 -2.234375 C 2.035156 -2.347656 1.894531 -2.40625 1.71875 -2.40625 Z M 1.71875 -2.40625" transform="translate(23.635 72.039)"/></g></g></g><g fill="#F1F1F9"><g><g><path d="M 0.421875 -0.65625 L 1.09375 -0.65625 L 1.09375 -2.28125 L 0.421875 -2.28125 L 0.421875 -2.9375 L 1.9375 -2.9375 L 1.9375 -2.109375 L 1.984375 -2.109375 C 2.003906 -2.210938 2.035156 -2.3125 2.078125 -2.40625 C 2.128906 -2.507812 2.191406 -2.597656 2.265625 -2.671875 C 2.347656 -2.753906 2.441406 -2.816406 2.546875 -2.859375 C 2.648438 -2.910156 2.773438 -2.9375 2.921875 -2.9375 L 3.203125 -2.9375 L 3.203125 -2.15625 L 2.578125 -2.15625 C 2.367188 -2.15625 2.207031 -2.09375 2.09375 -1.96875 C 1.988281 -1.851562 1.9375 -1.707031 1.9375 -1.53125 L 1.9375 -0.65625 L 2.90625 -0.65625 L 2.90625 0 L 0.421875 0 Z M 0.421875 -0.65625" transform="translate(27.049 72.039)"/></g></g></g><g fill="#F1F1F9"><g><g><path d="M 0.421875 -0.65625 L 1.09375 -0.65625 L 1.09375 -2.28125 L 0.421875 -2.28125 L 0.421875 -2.9375 L 1.9375 -2.9375 L 1.9375 -2.109375 L 1.984375 -2.109375 C 2.003906 -2.210938 2.035156 -2.3125 2.078125 -2.40625 C 2.128906 -2.507812 2.191406 -2.597656 2.265625 -2.671875 C 2.347656 -2.753906 2.441406 -2.816406 2.546875 -2.859375 C 2.648438 -2.910156 2.773438 -2.9375 2.921875 -2.9375 L 3.203125 -2.9375 L 3.203125 -2.15625 L 2.578125 -2.15625 C 2.367188 -2.15625 2.207031 -2.09375 2.09375 -1.96875 C 1.988281 -1.851562 1.9375 -1.707031 1.9375 -1.53125 L 1.9375 -0.65625 L 2.90625 -0.65625 L 2.90625 0 L 0.421875 0 Z M 0.421875 -0.65625" transform="translate(30.462 72.039)"/></g></g></g><g fill="#F1F1F9"><g><g><path d="M 1.890625 -3.3125 C 1.703125 -3.3125 1.566406 -3.347656 1.484375 -3.421875 C 1.410156 -3.503906 1.375 -3.597656 1.375 -3.703125 L 1.375 -3.875 C 1.375 -3.988281 1.410156 -4.082031 1.484375 -4.15625 C 1.566406 -4.226562 1.703125 -4.265625 1.890625 -4.265625 C 2.078125 -4.265625 2.207031 -4.226562 2.28125 -4.15625 C 2.351562 -4.082031 2.390625 -3.988281 2.390625 -3.875 L 2.390625 -3.703125 C 2.390625 -3.597656 2.351562 -3.503906 2.28125 -3.421875 C 2.207031 -3.347656 2.078125 -3.3125 1.890625 -3.3125 Z M 0.53125 -0.65625 L 1.46875 -0.65625 L 1.46875 -2.28125 L 0.53125 -2.28125 L 0.53125 -2.9375 L 2.3125 -2.9375 L 2.3125 -0.65625 L 3.171875 -0.65625 L 3.171875 0 L 0.53125 0 Z M 0.53125 -0.65625" transform="translate(33.876 72.039)"/></g></g></g><g fill="#F1F1F9"><g><g><path d="M 1.78125 0.0625 C 1.289062 0.0625 0.914062 -0.0703125 0.65625 -0.34375 C 0.40625 -0.613281 0.28125 -0.984375 0.28125 -1.453125 C 0.28125 -1.691406 0.3125 -1.90625 0.375 -2.09375 C 0.445312 -2.289062 0.546875 -2.457031 0.671875 -2.59375 C 0.796875 -2.726562 0.941406 -2.828125 1.109375 -2.890625 C 1.285156 -2.960938 1.488281 -3 1.71875 -3 C 1.9375 -3 2.128906 -2.960938 2.296875 -2.890625 C 2.472656 -2.828125 2.617188 -2.726562 2.734375 -2.59375 C 2.859375 -2.46875 2.953125 -2.3125 3.015625 -2.125 C 3.085938 -1.945312 3.125 -1.742188 3.125 -1.515625 L 3.125 -1.265625 L 1.125 -1.265625 L 1.125 -1.21875 C 1.125 -1.019531 1.179688 -0.863281 1.296875 -0.75 C 1.410156 -0.632812 1.582031 -0.578125 1.8125 -0.578125 C 1.988281 -0.578125 2.140625 -0.609375 2.265625 -0.671875 C 2.390625 -0.742188 2.5 -0.832031 2.59375 -0.9375 L 3.046875 -0.453125 C 2.929688 -0.304688 2.769531 -0.179688 2.5625 -0.078125 C 2.363281 0.015625 2.101562 0.0625 1.78125 0.0625 Z M 1.71875 -2.40625 C 1.53125 -2.40625 1.382812 -2.347656 1.28125 -2.234375 C 1.175781 -2.117188 1.125 -1.96875 1.125 -1.78125 L 1.125 -1.734375 L 2.296875 -1.734375 L 2.296875 -1.78125 C 2.296875 -1.96875 2.242188 -2.117188 2.140625 -2.234375 C 2.035156 -2.347656 1.894531 -2.40625 1.71875 -2.40625 Z M 1.71875 -2.40625" transform="translate(37.29 72.039)"/></g></g></g><g fill="#F1F1F9"><g><g><path d="M 0.375 0 L 0.375 -2.9375 L 1.21875 -2.9375 L 1.21875 -2.40625 L 1.25 -2.40625 C 1.28125 -2.488281 1.316406 -2.5625 1.359375 -2.625 C 1.410156 -2.695312 1.472656 -2.757812 1.546875 -2.8125 C 1.617188 -2.875 1.703125 -2.921875 1.796875 -2.953125 C 1.890625 -2.984375 1.992188 -3 2.109375 -3 C 2.253906 -3 2.382812 -2.972656 2.5 -2.921875 C 2.613281 -2.878906 2.710938 -2.8125 2.796875 -2.71875 C 2.878906 -2.625 2.941406 -2.507812 2.984375 -2.375 C 3.035156 -2.238281 3.0625 -2.082031 3.0625 -1.90625 L 3.0625 0 L 2.21875 0 L 2.21875 -1.78125 C 2.21875 -2.164062 2.054688 -2.359375 1.734375 -2.359375 C 1.660156 -2.359375 1.59375 -2.347656 1.53125 -2.328125 C 1.46875 -2.304688 1.410156 -2.28125 1.359375 -2.25 C 1.316406 -2.21875 1.28125 -2.171875 1.25 -2.109375 C 1.226562 -2.054688 1.21875 -1.992188 1.21875 -1.921875 L 1.21875 0 Z M 0.375 0" transform="translate(40.703 72.039)"/></g></g></g><g fill="#F1F1F9"><g><g><path d="M 1.828125 0.0625 C 1.597656 0.0625 1.390625 0.03125 1.203125 -0.03125 C 1.015625 -0.101562 0.859375 -0.207031 0.734375 -0.34375 C 0.609375 -0.476562 0.507812 -0.640625 0.4375 -0.828125 C 0.375 -1.015625 0.34375 -1.226562 0.34375 -1.46875 C 0.34375 -1.707031 0.375 -1.921875 0.4375 -2.109375 C 0.507812 -2.296875 0.609375 -2.457031 0.734375 -2.59375 C 0.859375 -2.726562 1.015625 -2.828125 1.203125 -2.890625 C 1.390625 -2.960938 1.59375 -3 1.8125 -3 C 2.132812 -3 2.394531 -2.929688 2.59375 -2.796875 C 2.789062 -2.671875 2.941406 -2.5 3.046875 -2.28125 L 2.390625 -1.9375 C 2.335938 -2.050781 2.269531 -2.144531 2.1875 -2.21875 C 2.101562 -2.289062 1.976562 -2.328125 1.8125 -2.328125 C 1.625 -2.328125 1.476562 -2.269531 1.375 -2.15625 C 1.269531 -2.050781 1.21875 -1.898438 1.21875 -1.703125 L 1.21875 -1.234375 C 1.21875 -1.035156 1.269531 -0.878906 1.375 -0.765625 C 1.476562 -0.660156 1.628906 -0.609375 1.828125 -0.609375 C 1.992188 -0.609375 2.125 -0.644531 2.21875 -0.71875 C 2.3125 -0.789062 2.390625 -0.890625 2.453125 -1.015625 L 3.09375 -0.640625 C 2.976562 -0.429688 2.820312 -0.257812 2.625 -0.125 C 2.425781 0 2.160156 0.0625 1.828125 0.0625 Z M 1.828125 0.0625" transform="translate(44.117 72.039)"/></g></g></g><g fill="#F1F1F9"><g><g><path d="M 1.703125 0.0625 C 1.472656 0.0625 1.265625 0.03125 1.078125 -0.03125 C 0.898438 -0.101562 0.75 -0.207031 0.625 -0.34375 C 0.5 -0.476562 0.398438 -0.640625 0.328125 -0.828125 C 0.265625 -1.015625 0.234375 -1.226562 0.234375 -1.46875 C 0.234375 -1.707031 0.265625 -1.921875 0.328125 -2.109375 C 0.398438 -2.296875 0.5 -2.457031 0.625 -2.59375 C 0.75 -2.726562 0.898438 -2.828125 1.078125 -2.890625 C 1.265625 -2.960938 1.472656 -3 1.703125 -3 C 1.929688 -3 2.132812 -2.960938 2.3125 -2.890625 C 2.5 -2.828125 2.65625 -2.726562 2.78125 -2.59375 C 2.90625 -2.457031 3 -2.296875 3.0625 -2.109375 C 3.132812 -1.921875 3.171875 -1.707031 3.171875 -1.46875 C 3.171875 -1.226562 3.132812 -1.015625 3.0625 -0.828125 C 3 -0.640625 2.90625 -0.476562 2.78125 -0.34375 C 2.65625 -0.207031 2.5 -0.101562 2.3125 -0.03125 C 2.132812 0.03125 1.929688 0.0625 1.703125 0.0625 Z M 1.703125 -0.5625 C 1.890625 -0.5625 2.035156 -0.617188 2.140625 -0.734375 C 2.253906 -0.847656 2.3125 -1.015625 2.3125 -1.234375 L 2.3125 -1.703125 C 2.3125 -1.921875 2.253906 -2.085938 2.140625 -2.203125 C 2.035156 -2.316406 1.890625 -2.375 1.703125 -2.375 C 1.515625 -2.375 1.367188 -2.316406 1.265625 -2.203125 C 1.160156 -2.085938 1.109375 -1.921875 1.109375 -1.703125 L 1.109375 -1.234375 C 1.109375 -1.015625 1.160156 -0.847656 1.265625 -0.734375 C 1.367188 -0.617188 1.515625 -0.5625 1.703125 -0.5625 Z M 1.703125 -0.5625" transform="translate(47.53 72.039)"/></g></g></g></svg>